G04 #@! TF.FileFunction,Soldermask,Top*
%FSLAX46Y46*%
G04 Gerber Fmt 4.6, Leading zero omitted, Abs format (unit mm)*
G04 Created by KiCad (PCBNEW 4.0.4-stable) date Tuesday 14 February 2017 01:11:44*
%MOMM*%
%LPD*%
G01*
G04 APERTURE LIST*
%ADD10C,0.100000*%
%ADD11R,1.100000X2.600000*%
%ADD12R,3.000000X3.000000*%
%ADD13O,1.800000X2.500000*%
%ADD14O,1.800000X3.700000*%
%ADD15R,0.700000X3.000000*%
G04 APERTURE END LIST*
D10*
D11*
X168165001Y-109315000D03*
X167165001Y-109315000D03*
X166165001Y-109315000D03*
X165165001Y-109315000D03*
X164165001Y-109315000D03*
X163165001Y-109315000D03*
X162165001Y-109315000D03*
X161165001Y-109315000D03*
X160165001Y-109315000D03*
X159165001Y-109315000D03*
X158165001Y-109315000D03*
X157165001Y-109315000D03*
X156165001Y-109315000D03*
X155165001Y-109315000D03*
X154165001Y-109315000D03*
D12*
X151865001Y-107315000D03*
X170465001Y-107315000D03*
D13*
X153786000Y-124578000D03*
X168286000Y-124578000D03*
D14*
X153786000Y-118618000D03*
X168286000Y-118618000D03*
D15*
X165786000Y-117868000D03*
X165286000Y-117868000D03*
X164786000Y-117868000D03*
X164286000Y-117868000D03*
X163786000Y-117868000D03*
X163286000Y-117868000D03*
X162786000Y-117868000D03*
X162286000Y-117868000D03*
X161786000Y-117868000D03*
X161286000Y-117868000D03*
X160786000Y-117868000D03*
X160286000Y-117868000D03*
X159786000Y-117868000D03*
X159286000Y-117868000D03*
X158786000Y-117868000D03*
X158286000Y-117868000D03*
X157786000Y-117868000D03*
X157286000Y-117868000D03*
X156786000Y-117868000D03*
M02*
