G04 #@! TF.FileFunction,Legend,Top*
%FSLAX46Y46*%
G04 Gerber Fmt 4.6, Leading zero omitted, Abs format (unit mm)*
G04 Created by KiCad (PCBNEW 4.0.4-stable) date Tuesday 14 February 2017 01:11:44*
%MOMM*%
%LPD*%
G01*
G04 APERTURE LIST*
%ADD10C,0.100000*%
%ADD11C,0.150000*%
%ADD12C,0.203200*%
G04 APERTURE END LIST*
D10*
D11*
X172215001Y-109115000D02*
X170665001Y-109115000D01*
X150115001Y-109115000D02*
X151665001Y-109115000D01*
X172215001Y-109115000D02*
X172215001Y-108715000D01*
X150115001Y-109115000D02*
X150115001Y-108715000D01*
X172215001Y-105415000D02*
X150115001Y-105415000D01*
X172215001Y-105415000D02*
X172215001Y-105815000D01*
X150115001Y-105415000D02*
X150115001Y-105815000D01*
X170915001Y-110015000D02*
X171515001Y-110315000D01*
X171515001Y-110315000D02*
X171515001Y-109715000D01*
X171515001Y-109715000D02*
X170915001Y-110015000D01*
X168412401Y-106965000D02*
X168412401Y-106465000D01*
X168412401Y-106465000D02*
X167912401Y-106465000D01*
X167912401Y-106465000D02*
X167912401Y-106965000D01*
X167912401Y-106965000D02*
X168412401Y-106965000D01*
X167416401Y-106965000D02*
X167416401Y-106465000D01*
X167416401Y-106465000D02*
X166916401Y-106465000D01*
X166916401Y-106465000D02*
X166916401Y-106965000D01*
X166916401Y-106965000D02*
X167416401Y-106965000D01*
X166420401Y-106965000D02*
X166420401Y-106465000D01*
X166420401Y-106465000D02*
X165920401Y-106465000D01*
X165920401Y-106465000D02*
X165920401Y-106965000D01*
X165920401Y-106965000D02*
X166420401Y-106965000D01*
X165399001Y-106965000D02*
X165399001Y-106465000D01*
X165399001Y-106465000D02*
X164899001Y-106465000D01*
X164899001Y-106465000D02*
X164899001Y-106965000D01*
X164899001Y-106965000D02*
X165399001Y-106965000D01*
X164403001Y-106965000D02*
X164403001Y-106465000D01*
X164403001Y-106465000D02*
X163903001Y-106465000D01*
X163903001Y-106465000D02*
X163903001Y-106965000D01*
X163903001Y-106965000D02*
X164403001Y-106965000D01*
X163407001Y-106965000D02*
X163407001Y-106465000D01*
X163407001Y-106465000D02*
X162907001Y-106465000D01*
X162907001Y-106465000D02*
X162907001Y-106965000D01*
X162907001Y-106965000D02*
X163407001Y-106965000D01*
X162411001Y-106965000D02*
X162411001Y-106465000D01*
X162411001Y-106465000D02*
X161911001Y-106465000D01*
X161911001Y-106465000D02*
X161911001Y-106965000D01*
X161911001Y-106965000D02*
X162411001Y-106965000D01*
X161415001Y-106965000D02*
X161415001Y-106465000D01*
X161415001Y-106465000D02*
X160915001Y-106465000D01*
X160915001Y-106465000D02*
X160915001Y-106965000D01*
X160915001Y-106965000D02*
X161415001Y-106965000D01*
X160419001Y-106965000D02*
X160419001Y-106465000D01*
X160419001Y-106465000D02*
X159919001Y-106465000D01*
X159919001Y-106465000D02*
X159919001Y-106965000D01*
X159919001Y-106965000D02*
X160419001Y-106965000D01*
X159423001Y-106965000D02*
X159423001Y-106465000D01*
X159423001Y-106465000D02*
X158923001Y-106465000D01*
X158923001Y-106465000D02*
X158923001Y-106965000D01*
X158923001Y-106965000D02*
X159423001Y-106965000D01*
X158427001Y-106965000D02*
X158427001Y-106465000D01*
X158427001Y-106465000D02*
X157927001Y-106465000D01*
X157927001Y-106465000D02*
X157927001Y-106965000D01*
X157927001Y-106965000D02*
X158427001Y-106965000D01*
X157431001Y-106965000D02*
X157431001Y-106465000D01*
X157431001Y-106465000D02*
X156931001Y-106465000D01*
X156931001Y-106465000D02*
X156931001Y-106965000D01*
X156931001Y-106965000D02*
X157431001Y-106965000D01*
X156409601Y-106965000D02*
X156409601Y-106465000D01*
X156409601Y-106465000D02*
X155909601Y-106465000D01*
X155909601Y-106465000D02*
X155909601Y-106965000D01*
X155909601Y-106965000D02*
X156409601Y-106965000D01*
X155413601Y-106965000D02*
X155413601Y-106465000D01*
X155413601Y-106465000D02*
X154913601Y-106465000D01*
X154913601Y-106465000D02*
X154913601Y-106965000D01*
X154913601Y-106965000D02*
X155413601Y-106965000D01*
X154417601Y-106965000D02*
X154417601Y-106465000D01*
X154417601Y-106465000D02*
X153917601Y-106465000D01*
X153917601Y-106465000D02*
X153917601Y-106965000D01*
X153917601Y-106965000D02*
X154417601Y-106965000D01*
D12*
X153536000Y-117588000D02*
X168536000Y-117588000D01*
X153536000Y-127088000D02*
X153536000Y-117588000D01*
X168536000Y-127088000D02*
X168536000Y-117588000D01*
X168536000Y-127088000D02*
X153536000Y-127088000D01*
D11*
X149121905Y-110942381D02*
X149121905Y-109942381D01*
X149502858Y-109942381D01*
X149598096Y-109990000D01*
X149645715Y-110037619D01*
X149693334Y-110132857D01*
X149693334Y-110275714D01*
X149645715Y-110370952D01*
X149598096Y-110418571D01*
X149502858Y-110466190D01*
X149121905Y-110466190D01*
X150645715Y-110942381D02*
X150074286Y-110942381D01*
X150360000Y-110942381D02*
X150360000Y-109942381D01*
X150264762Y-110085238D01*
X150169524Y-110180476D01*
X150074286Y-110228095D01*
X160536000Y-124146571D02*
X160536000Y-125218000D01*
X160464572Y-125432286D01*
X160321715Y-125575143D01*
X160107429Y-125646571D01*
X159964572Y-125646571D01*
X162036000Y-125646571D02*
X161178857Y-125646571D01*
X161607429Y-125646571D02*
X161607429Y-124146571D01*
X161464572Y-124360857D01*
X161321714Y-124503714D01*
X161178857Y-124575143D01*
X157428857Y-121836571D02*
X157428857Y-120336571D01*
X157428857Y-121050857D02*
X158286000Y-121050857D01*
X158286000Y-121836571D02*
X158286000Y-120336571D01*
X159000286Y-121836571D02*
X159000286Y-120336571D01*
X159357429Y-120336571D01*
X159571714Y-120408000D01*
X159714572Y-120550857D01*
X159786000Y-120693714D01*
X159857429Y-120979429D01*
X159857429Y-121193714D01*
X159786000Y-121479429D01*
X159714572Y-121622286D01*
X159571714Y-121765143D01*
X159357429Y-121836571D01*
X159000286Y-121836571D01*
X160500286Y-121836571D02*
X160500286Y-120336571D01*
X161000286Y-121408000D01*
X161500286Y-120336571D01*
X161500286Y-121836571D01*
X162214572Y-121836571D02*
X162214572Y-120336571D01*
X162571715Y-121979429D02*
X163714572Y-121979429D01*
X164000286Y-121408000D02*
X164714572Y-121408000D01*
X163857429Y-121836571D02*
X164357429Y-120336571D01*
X164857429Y-121836571D01*
M02*
