G04 #@! TF.FileFunction,Copper,L1,Top,Signal*
%FSLAX46Y46*%
G04 Gerber Fmt 4.6, Leading zero omitted, Abs format (unit mm)*
G04 Created by KiCad (PCBNEW 4.0.4-stable) date Tuesday 14 February 2017 01:11:44*
%MOMM*%
%LPD*%
G01*
G04 APERTURE LIST*
%ADD10C,0.100000*%
%ADD11R,0.700000X2.200000*%
%ADD12R,2.600000X2.600000*%
%ADD13O,1.400000X2.100000*%
%ADD14O,1.400000X3.300000*%
%ADD15R,0.300000X2.600000*%
%ADD16C,0.250000*%
%ADD17C,0.254000*%
G04 APERTURE END LIST*
D10*
D11*
X168165001Y-109315000D03*
X167165001Y-109315000D03*
X166165001Y-109315000D03*
X165165001Y-109315000D03*
X164165001Y-109315000D03*
X163165001Y-109315000D03*
X162165001Y-109315000D03*
X161165001Y-109315000D03*
X160165001Y-109315000D03*
X159165001Y-109315000D03*
X158165001Y-109315000D03*
X157165001Y-109315000D03*
X156165001Y-109315000D03*
X155165001Y-109315000D03*
X154165001Y-109315000D03*
D12*
X151865001Y-107315000D03*
X170465001Y-107315000D03*
D13*
X153786000Y-124578000D03*
X168286000Y-124578000D03*
D14*
X153786000Y-118618000D03*
X168286000Y-118618000D03*
D15*
X165786000Y-117868000D03*
X165286000Y-117868000D03*
X164786000Y-117868000D03*
X164286000Y-117868000D03*
X163786000Y-117868000D03*
X163286000Y-117868000D03*
X162786000Y-117868000D03*
X162286000Y-117868000D03*
X161786000Y-117868000D03*
X161286000Y-117868000D03*
X160786000Y-117868000D03*
X160286000Y-117868000D03*
X159786000Y-117868000D03*
X159286000Y-117868000D03*
X158786000Y-117868000D03*
X158286000Y-117868000D03*
X157786000Y-117868000D03*
X157286000Y-117868000D03*
X156786000Y-117868000D03*
D16*
X165786000Y-117868000D02*
X165786000Y-113233000D01*
X168021000Y-110998000D02*
X168021000Y-109459001D01*
X165786000Y-113233000D02*
X168021000Y-110998000D01*
X168021000Y-109459001D02*
X168165001Y-109315000D01*
X165286000Y-117868000D02*
X165286000Y-112844000D01*
X167165001Y-110964999D02*
X167165001Y-109315000D01*
X165286000Y-112844000D02*
X167165001Y-110964999D01*
X164786000Y-117868000D02*
X164786000Y-112317998D01*
X166165001Y-110938997D02*
X166165001Y-109315000D01*
X164786000Y-112317998D02*
X166165001Y-110938997D01*
X164286000Y-117868000D02*
X164286000Y-111939000D01*
X165165001Y-111059999D02*
X165165001Y-109315000D01*
X164286000Y-111939000D02*
X165165001Y-111059999D01*
X163786000Y-117868000D02*
X163786000Y-111550000D01*
X164165001Y-111170999D02*
X164165001Y-109315000D01*
X163786000Y-111550000D02*
X164165001Y-111170999D01*
X163286000Y-117868000D02*
X163286000Y-109435999D01*
X163286000Y-109435999D02*
X163165001Y-109315000D01*
X162786000Y-117868000D02*
X162786000Y-111605000D01*
X162165001Y-110984001D02*
X162165001Y-109315000D01*
X162786000Y-111605000D02*
X162165001Y-110984001D01*
X162286000Y-117868000D02*
X162286000Y-112063998D01*
X161347002Y-111125000D02*
X161347002Y-109497001D01*
X162286000Y-112063998D02*
X161347002Y-111125000D01*
X161347002Y-109497001D02*
X161165001Y-109315000D01*
X161290000Y-110139999D02*
X161165001Y-110015000D01*
X161786000Y-117868000D02*
X161786000Y-112637000D01*
X160147000Y-110998000D02*
X160147000Y-109333001D01*
X161786000Y-112637000D02*
X160147000Y-110998000D01*
X160147000Y-109333001D02*
X160165001Y-109315000D01*
X161286000Y-117868000D02*
X161286000Y-113153000D01*
X159258000Y-111125000D02*
X159258000Y-109407999D01*
X161286000Y-113153000D02*
X159258000Y-111125000D01*
X159258000Y-109407999D02*
X159165001Y-109315000D01*
X160786000Y-117868000D02*
X160786000Y-113669000D01*
X158115000Y-110998000D02*
X158115000Y-109365001D01*
X160786000Y-113669000D02*
X158115000Y-110998000D01*
X158115000Y-109365001D02*
X158165001Y-109315000D01*
X160286000Y-117868000D02*
X160286000Y-114185000D01*
X157226000Y-111125000D02*
X157226000Y-109375999D01*
X160286000Y-114185000D02*
X157226000Y-111125000D01*
X157226000Y-109375999D02*
X157165001Y-109315000D01*
X159786000Y-117868000D02*
X159786000Y-114701000D01*
X156337000Y-111252000D02*
X156337000Y-109486999D01*
X159786000Y-114701000D02*
X156337000Y-111252000D01*
X156337000Y-109486999D02*
X156165001Y-109315000D01*
X159286000Y-117868000D02*
X159286000Y-115217000D01*
X155194000Y-111125000D02*
X155194000Y-109343999D01*
X159286000Y-115217000D02*
X155194000Y-111125000D01*
X155194000Y-109343999D02*
X155165001Y-109315000D01*
X158786000Y-117868000D02*
X158786000Y-115733000D01*
X154178000Y-111125000D02*
X154178000Y-109327999D01*
X158786000Y-115733000D02*
X154178000Y-111125000D01*
X154178000Y-109327999D02*
X154165001Y-109315000D01*
D17*
G36*
X173280000Y-127306000D02*
X149046000Y-127306000D01*
X149046000Y-124194989D01*
X152451000Y-124194989D01*
X152451000Y-124961011D01*
X152552621Y-125471893D01*
X152842012Y-125904999D01*
X153275118Y-126194390D01*
X153786000Y-126296011D01*
X154296882Y-126194390D01*
X154729988Y-125904999D01*
X155019379Y-125471893D01*
X155121000Y-124961011D01*
X155121000Y-124194989D01*
X166951000Y-124194989D01*
X166951000Y-124961011D01*
X167052621Y-125471893D01*
X167342012Y-125904999D01*
X167775118Y-126194390D01*
X168286000Y-126296011D01*
X168796882Y-126194390D01*
X169229988Y-125904999D01*
X169519379Y-125471893D01*
X169621000Y-124961011D01*
X169621000Y-124194989D01*
X169519379Y-123684107D01*
X169229988Y-123251001D01*
X168796882Y-122961610D01*
X168286000Y-122859989D01*
X167775118Y-122961610D01*
X167342012Y-123251001D01*
X167052621Y-123684107D01*
X166951000Y-124194989D01*
X155121000Y-124194989D01*
X155019379Y-123684107D01*
X154729988Y-123251001D01*
X154296882Y-122961610D01*
X153786000Y-122859989D01*
X153275118Y-122961610D01*
X152842012Y-123251001D01*
X152552621Y-123684107D01*
X152451000Y-124194989D01*
X149046000Y-124194989D01*
X149046000Y-117623234D01*
X152451000Y-117623234D01*
X152451000Y-119612766D01*
X152552621Y-120123648D01*
X152842012Y-120556754D01*
X153275118Y-120846145D01*
X153786000Y-120947766D01*
X154296882Y-120846145D01*
X154729988Y-120556754D01*
X155019379Y-120123648D01*
X155121000Y-119612766D01*
X155121000Y-117623234D01*
X155019379Y-117112352D01*
X154729988Y-116679246D01*
X154296882Y-116389855D01*
X153786000Y-116288234D01*
X153275118Y-116389855D01*
X152842012Y-116679246D01*
X152552621Y-117112352D01*
X152451000Y-117623234D01*
X149046000Y-117623234D01*
X149046000Y-106015000D01*
X149917561Y-106015000D01*
X149917561Y-108615000D01*
X149930001Y-108681113D01*
X149930001Y-108741310D01*
X149950756Y-108791418D01*
X149961839Y-108850317D01*
X149999208Y-108908390D01*
X150026674Y-108974699D01*
X150069316Y-109017340D01*
X150100911Y-109066441D01*
X150156181Y-109104206D01*
X150205303Y-109153327D01*
X150263127Y-109177279D01*
X150313111Y-109211431D01*
X150376634Y-109224295D01*
X150438692Y-109250000D01*
X150503570Y-109250000D01*
X150565001Y-109262440D01*
X153165001Y-109262440D01*
X153167561Y-109261958D01*
X153167561Y-110415000D01*
X153211839Y-110650317D01*
X153350911Y-110866441D01*
X153418000Y-110912281D01*
X153418000Y-111125000D01*
X153475852Y-111415839D01*
X153640599Y-111662401D01*
X157898758Y-115920560D01*
X157636000Y-115920560D01*
X157532329Y-115940067D01*
X157436000Y-115920560D01*
X157136000Y-115920560D01*
X157032329Y-115940067D01*
X156936000Y-115920560D01*
X156636000Y-115920560D01*
X156400683Y-115964838D01*
X156184559Y-116103910D01*
X156039569Y-116316110D01*
X155988560Y-116568000D01*
X155988560Y-119168000D01*
X156032838Y-119403317D01*
X156171910Y-119619441D01*
X156384110Y-119764431D01*
X156636000Y-119815440D01*
X156936000Y-119815440D01*
X157039671Y-119795933D01*
X157136000Y-119815440D01*
X157436000Y-119815440D01*
X157539671Y-119795933D01*
X157636000Y-119815440D01*
X157936000Y-119815440D01*
X158039671Y-119795933D01*
X158136000Y-119815440D01*
X158436000Y-119815440D01*
X158539671Y-119795933D01*
X158636000Y-119815440D01*
X158936000Y-119815440D01*
X159039671Y-119795933D01*
X159136000Y-119815440D01*
X159436000Y-119815440D01*
X159539671Y-119795933D01*
X159636000Y-119815440D01*
X159936000Y-119815440D01*
X160039671Y-119795933D01*
X160136000Y-119815440D01*
X160436000Y-119815440D01*
X160539671Y-119795933D01*
X160636000Y-119815440D01*
X160936000Y-119815440D01*
X161039671Y-119795933D01*
X161136000Y-119815440D01*
X161436000Y-119815440D01*
X161539671Y-119795933D01*
X161636000Y-119815440D01*
X161936000Y-119815440D01*
X162039671Y-119795933D01*
X162136000Y-119815440D01*
X162436000Y-119815440D01*
X162539671Y-119795933D01*
X162636000Y-119815440D01*
X162936000Y-119815440D01*
X163039671Y-119795933D01*
X163136000Y-119815440D01*
X163436000Y-119815440D01*
X163539671Y-119795933D01*
X163636000Y-119815440D01*
X163936000Y-119815440D01*
X164039671Y-119795933D01*
X164136000Y-119815440D01*
X164436000Y-119815440D01*
X164539671Y-119795933D01*
X164636000Y-119815440D01*
X164936000Y-119815440D01*
X165039671Y-119795933D01*
X165136000Y-119815440D01*
X165436000Y-119815440D01*
X165539671Y-119795933D01*
X165636000Y-119815440D01*
X165936000Y-119815440D01*
X166171317Y-119771162D01*
X166387441Y-119632090D01*
X166532431Y-119419890D01*
X166583440Y-119168000D01*
X166583440Y-117623234D01*
X166951000Y-117623234D01*
X166951000Y-119612766D01*
X167052621Y-120123648D01*
X167342012Y-120556754D01*
X167775118Y-120846145D01*
X168286000Y-120947766D01*
X168796882Y-120846145D01*
X169229988Y-120556754D01*
X169519379Y-120123648D01*
X169621000Y-119612766D01*
X169621000Y-117623234D01*
X169519379Y-117112352D01*
X169229988Y-116679246D01*
X168796882Y-116389855D01*
X168286000Y-116288234D01*
X167775118Y-116389855D01*
X167342012Y-116679246D01*
X167052621Y-117112352D01*
X166951000Y-117623234D01*
X166583440Y-117623234D01*
X166583440Y-116568000D01*
X166546000Y-116369024D01*
X166546000Y-113547802D01*
X168558401Y-111535401D01*
X168723148Y-111288840D01*
X168780904Y-110998480D01*
X168966442Y-110879090D01*
X169111432Y-110666890D01*
X169162441Y-110415000D01*
X169162441Y-109261922D01*
X169165001Y-109262440D01*
X171765001Y-109262440D01*
X171831114Y-109250000D01*
X171891310Y-109250000D01*
X171941417Y-109229245D01*
X172000318Y-109218162D01*
X172058392Y-109180792D01*
X172124699Y-109153327D01*
X172167340Y-109110686D01*
X172216442Y-109079090D01*
X172254206Y-109023821D01*
X172303328Y-108974699D01*
X172327281Y-108916872D01*
X172361432Y-108866890D01*
X172374295Y-108803369D01*
X172400001Y-108741310D01*
X172400001Y-108676431D01*
X172412441Y-108615000D01*
X172412441Y-106015000D01*
X172400001Y-105948887D01*
X172400001Y-105888690D01*
X172379246Y-105838582D01*
X172368163Y-105779683D01*
X172330794Y-105721610D01*
X172303328Y-105655301D01*
X172260686Y-105612660D01*
X172229091Y-105563559D01*
X172173821Y-105525794D01*
X172124699Y-105476673D01*
X172066875Y-105452721D01*
X172016891Y-105418569D01*
X171953368Y-105405705D01*
X171891310Y-105380000D01*
X171826432Y-105380000D01*
X171765001Y-105367560D01*
X169165001Y-105367560D01*
X169098888Y-105380000D01*
X169038692Y-105380000D01*
X168988585Y-105400755D01*
X168929684Y-105411838D01*
X168871610Y-105449208D01*
X168805303Y-105476673D01*
X168762662Y-105519314D01*
X168713560Y-105550910D01*
X168675796Y-105606179D01*
X168626674Y-105655301D01*
X168602721Y-105713128D01*
X168568570Y-105763110D01*
X168555707Y-105826631D01*
X168530001Y-105888690D01*
X168530001Y-105953569D01*
X168517561Y-106015000D01*
X168517561Y-107568078D01*
X168515001Y-107567560D01*
X167815001Y-107567560D01*
X167659494Y-107596821D01*
X167515001Y-107567560D01*
X166815001Y-107567560D01*
X166659494Y-107596821D01*
X166515001Y-107567560D01*
X165815001Y-107567560D01*
X165659494Y-107596821D01*
X165515001Y-107567560D01*
X164815001Y-107567560D01*
X164659494Y-107596821D01*
X164515001Y-107567560D01*
X163815001Y-107567560D01*
X163659494Y-107596821D01*
X163515001Y-107567560D01*
X162815001Y-107567560D01*
X162659494Y-107596821D01*
X162515001Y-107567560D01*
X161815001Y-107567560D01*
X161659494Y-107596821D01*
X161515001Y-107567560D01*
X160815001Y-107567560D01*
X160659494Y-107596821D01*
X160515001Y-107567560D01*
X159815001Y-107567560D01*
X159659494Y-107596821D01*
X159515001Y-107567560D01*
X158815001Y-107567560D01*
X158659494Y-107596821D01*
X158515001Y-107567560D01*
X157815001Y-107567560D01*
X157659494Y-107596821D01*
X157515001Y-107567560D01*
X156815001Y-107567560D01*
X156659494Y-107596821D01*
X156515001Y-107567560D01*
X155815001Y-107567560D01*
X155659494Y-107596821D01*
X155515001Y-107567560D01*
X154815001Y-107567560D01*
X154659494Y-107596821D01*
X154515001Y-107567560D01*
X153815001Y-107567560D01*
X153812441Y-107568042D01*
X153812441Y-106015000D01*
X153800001Y-105948887D01*
X153800001Y-105888690D01*
X153779246Y-105838582D01*
X153768163Y-105779683D01*
X153730794Y-105721610D01*
X153703328Y-105655301D01*
X153660686Y-105612660D01*
X153629091Y-105563559D01*
X153573821Y-105525794D01*
X153524699Y-105476673D01*
X153466875Y-105452721D01*
X153416891Y-105418569D01*
X153353368Y-105405705D01*
X153291310Y-105380000D01*
X153226432Y-105380000D01*
X153165001Y-105367560D01*
X150565001Y-105367560D01*
X150498888Y-105380000D01*
X150438692Y-105380000D01*
X150388585Y-105400755D01*
X150329684Y-105411838D01*
X150271610Y-105449208D01*
X150205303Y-105476673D01*
X150162662Y-105519314D01*
X150113560Y-105550910D01*
X150075796Y-105606179D01*
X150026674Y-105655301D01*
X150002721Y-105713128D01*
X149968570Y-105763110D01*
X149955707Y-105826631D01*
X149930001Y-105888690D01*
X149930001Y-105953569D01*
X149917561Y-106015000D01*
X149046000Y-106015000D01*
X149046000Y-103834000D01*
X173280000Y-103834000D01*
X173280000Y-127306000D01*
X173280000Y-127306000D01*
G37*
X173280000Y-127306000D02*
X149046000Y-127306000D01*
X149046000Y-124194989D01*
X152451000Y-124194989D01*
X152451000Y-124961011D01*
X152552621Y-125471893D01*
X152842012Y-125904999D01*
X153275118Y-126194390D01*
X153786000Y-126296011D01*
X154296882Y-126194390D01*
X154729988Y-125904999D01*
X155019379Y-125471893D01*
X155121000Y-124961011D01*
X155121000Y-124194989D01*
X166951000Y-124194989D01*
X166951000Y-124961011D01*
X167052621Y-125471893D01*
X167342012Y-125904999D01*
X167775118Y-126194390D01*
X168286000Y-126296011D01*
X168796882Y-126194390D01*
X169229988Y-125904999D01*
X169519379Y-125471893D01*
X169621000Y-124961011D01*
X169621000Y-124194989D01*
X169519379Y-123684107D01*
X169229988Y-123251001D01*
X168796882Y-122961610D01*
X168286000Y-122859989D01*
X167775118Y-122961610D01*
X167342012Y-123251001D01*
X167052621Y-123684107D01*
X166951000Y-124194989D01*
X155121000Y-124194989D01*
X155019379Y-123684107D01*
X154729988Y-123251001D01*
X154296882Y-122961610D01*
X153786000Y-122859989D01*
X153275118Y-122961610D01*
X152842012Y-123251001D01*
X152552621Y-123684107D01*
X152451000Y-124194989D01*
X149046000Y-124194989D01*
X149046000Y-117623234D01*
X152451000Y-117623234D01*
X152451000Y-119612766D01*
X152552621Y-120123648D01*
X152842012Y-120556754D01*
X153275118Y-120846145D01*
X153786000Y-120947766D01*
X154296882Y-120846145D01*
X154729988Y-120556754D01*
X155019379Y-120123648D01*
X155121000Y-119612766D01*
X155121000Y-117623234D01*
X155019379Y-117112352D01*
X154729988Y-116679246D01*
X154296882Y-116389855D01*
X153786000Y-116288234D01*
X153275118Y-116389855D01*
X152842012Y-116679246D01*
X152552621Y-117112352D01*
X152451000Y-117623234D01*
X149046000Y-117623234D01*
X149046000Y-106015000D01*
X149917561Y-106015000D01*
X149917561Y-108615000D01*
X149930001Y-108681113D01*
X149930001Y-108741310D01*
X149950756Y-108791418D01*
X149961839Y-108850317D01*
X149999208Y-108908390D01*
X150026674Y-108974699D01*
X150069316Y-109017340D01*
X150100911Y-109066441D01*
X150156181Y-109104206D01*
X150205303Y-109153327D01*
X150263127Y-109177279D01*
X150313111Y-109211431D01*
X150376634Y-109224295D01*
X150438692Y-109250000D01*
X150503570Y-109250000D01*
X150565001Y-109262440D01*
X153165001Y-109262440D01*
X153167561Y-109261958D01*
X153167561Y-110415000D01*
X153211839Y-110650317D01*
X153350911Y-110866441D01*
X153418000Y-110912281D01*
X153418000Y-111125000D01*
X153475852Y-111415839D01*
X153640599Y-111662401D01*
X157898758Y-115920560D01*
X157636000Y-115920560D01*
X157532329Y-115940067D01*
X157436000Y-115920560D01*
X157136000Y-115920560D01*
X157032329Y-115940067D01*
X156936000Y-115920560D01*
X156636000Y-115920560D01*
X156400683Y-115964838D01*
X156184559Y-116103910D01*
X156039569Y-116316110D01*
X155988560Y-116568000D01*
X155988560Y-119168000D01*
X156032838Y-119403317D01*
X156171910Y-119619441D01*
X156384110Y-119764431D01*
X156636000Y-119815440D01*
X156936000Y-119815440D01*
X157039671Y-119795933D01*
X157136000Y-119815440D01*
X157436000Y-119815440D01*
X157539671Y-119795933D01*
X157636000Y-119815440D01*
X157936000Y-119815440D01*
X158039671Y-119795933D01*
X158136000Y-119815440D01*
X158436000Y-119815440D01*
X158539671Y-119795933D01*
X158636000Y-119815440D01*
X158936000Y-119815440D01*
X159039671Y-119795933D01*
X159136000Y-119815440D01*
X159436000Y-119815440D01*
X159539671Y-119795933D01*
X159636000Y-119815440D01*
X159936000Y-119815440D01*
X160039671Y-119795933D01*
X160136000Y-119815440D01*
X160436000Y-119815440D01*
X160539671Y-119795933D01*
X160636000Y-119815440D01*
X160936000Y-119815440D01*
X161039671Y-119795933D01*
X161136000Y-119815440D01*
X161436000Y-119815440D01*
X161539671Y-119795933D01*
X161636000Y-119815440D01*
X161936000Y-119815440D01*
X162039671Y-119795933D01*
X162136000Y-119815440D01*
X162436000Y-119815440D01*
X162539671Y-119795933D01*
X162636000Y-119815440D01*
X162936000Y-119815440D01*
X163039671Y-119795933D01*
X163136000Y-119815440D01*
X163436000Y-119815440D01*
X163539671Y-119795933D01*
X163636000Y-119815440D01*
X163936000Y-119815440D01*
X164039671Y-119795933D01*
X164136000Y-119815440D01*
X164436000Y-119815440D01*
X164539671Y-119795933D01*
X164636000Y-119815440D01*
X164936000Y-119815440D01*
X165039671Y-119795933D01*
X165136000Y-119815440D01*
X165436000Y-119815440D01*
X165539671Y-119795933D01*
X165636000Y-119815440D01*
X165936000Y-119815440D01*
X166171317Y-119771162D01*
X166387441Y-119632090D01*
X166532431Y-119419890D01*
X166583440Y-119168000D01*
X166583440Y-117623234D01*
X166951000Y-117623234D01*
X166951000Y-119612766D01*
X167052621Y-120123648D01*
X167342012Y-120556754D01*
X167775118Y-120846145D01*
X168286000Y-120947766D01*
X168796882Y-120846145D01*
X169229988Y-120556754D01*
X169519379Y-120123648D01*
X169621000Y-119612766D01*
X169621000Y-117623234D01*
X169519379Y-117112352D01*
X169229988Y-116679246D01*
X168796882Y-116389855D01*
X168286000Y-116288234D01*
X167775118Y-116389855D01*
X167342012Y-116679246D01*
X167052621Y-117112352D01*
X166951000Y-117623234D01*
X166583440Y-117623234D01*
X166583440Y-116568000D01*
X166546000Y-116369024D01*
X166546000Y-113547802D01*
X168558401Y-111535401D01*
X168723148Y-111288840D01*
X168780904Y-110998480D01*
X168966442Y-110879090D01*
X169111432Y-110666890D01*
X169162441Y-110415000D01*
X169162441Y-109261922D01*
X169165001Y-109262440D01*
X171765001Y-109262440D01*
X171831114Y-109250000D01*
X171891310Y-109250000D01*
X171941417Y-109229245D01*
X172000318Y-109218162D01*
X172058392Y-109180792D01*
X172124699Y-109153327D01*
X172167340Y-109110686D01*
X172216442Y-109079090D01*
X172254206Y-109023821D01*
X172303328Y-108974699D01*
X172327281Y-108916872D01*
X172361432Y-108866890D01*
X172374295Y-108803369D01*
X172400001Y-108741310D01*
X172400001Y-108676431D01*
X172412441Y-108615000D01*
X172412441Y-106015000D01*
X172400001Y-105948887D01*
X172400001Y-105888690D01*
X172379246Y-105838582D01*
X172368163Y-105779683D01*
X172330794Y-105721610D01*
X172303328Y-105655301D01*
X172260686Y-105612660D01*
X172229091Y-105563559D01*
X172173821Y-105525794D01*
X172124699Y-105476673D01*
X172066875Y-105452721D01*
X172016891Y-105418569D01*
X171953368Y-105405705D01*
X171891310Y-105380000D01*
X171826432Y-105380000D01*
X171765001Y-105367560D01*
X169165001Y-105367560D01*
X169098888Y-105380000D01*
X169038692Y-105380000D01*
X168988585Y-105400755D01*
X168929684Y-105411838D01*
X168871610Y-105449208D01*
X168805303Y-105476673D01*
X168762662Y-105519314D01*
X168713560Y-105550910D01*
X168675796Y-105606179D01*
X168626674Y-105655301D01*
X168602721Y-105713128D01*
X168568570Y-105763110D01*
X168555707Y-105826631D01*
X168530001Y-105888690D01*
X168530001Y-105953569D01*
X168517561Y-106015000D01*
X168517561Y-107568078D01*
X168515001Y-107567560D01*
X167815001Y-107567560D01*
X167659494Y-107596821D01*
X167515001Y-107567560D01*
X166815001Y-107567560D01*
X166659494Y-107596821D01*
X166515001Y-107567560D01*
X165815001Y-107567560D01*
X165659494Y-107596821D01*
X165515001Y-107567560D01*
X164815001Y-107567560D01*
X164659494Y-107596821D01*
X164515001Y-107567560D01*
X163815001Y-107567560D01*
X163659494Y-107596821D01*
X163515001Y-107567560D01*
X162815001Y-107567560D01*
X162659494Y-107596821D01*
X162515001Y-107567560D01*
X161815001Y-107567560D01*
X161659494Y-107596821D01*
X161515001Y-107567560D01*
X160815001Y-107567560D01*
X160659494Y-107596821D01*
X160515001Y-107567560D01*
X159815001Y-107567560D01*
X159659494Y-107596821D01*
X159515001Y-107567560D01*
X158815001Y-107567560D01*
X158659494Y-107596821D01*
X158515001Y-107567560D01*
X157815001Y-107567560D01*
X157659494Y-107596821D01*
X157515001Y-107567560D01*
X156815001Y-107567560D01*
X156659494Y-107596821D01*
X156515001Y-107567560D01*
X155815001Y-107567560D01*
X155659494Y-107596821D01*
X155515001Y-107567560D01*
X154815001Y-107567560D01*
X154659494Y-107596821D01*
X154515001Y-107567560D01*
X153815001Y-107567560D01*
X153812441Y-107568042D01*
X153812441Y-106015000D01*
X153800001Y-105948887D01*
X153800001Y-105888690D01*
X153779246Y-105838582D01*
X153768163Y-105779683D01*
X153730794Y-105721610D01*
X153703328Y-105655301D01*
X153660686Y-105612660D01*
X153629091Y-105563559D01*
X153573821Y-105525794D01*
X153524699Y-105476673D01*
X153466875Y-105452721D01*
X153416891Y-105418569D01*
X153353368Y-105405705D01*
X153291310Y-105380000D01*
X153226432Y-105380000D01*
X153165001Y-105367560D01*
X150565001Y-105367560D01*
X150498888Y-105380000D01*
X150438692Y-105380000D01*
X150388585Y-105400755D01*
X150329684Y-105411838D01*
X150271610Y-105449208D01*
X150205303Y-105476673D01*
X150162662Y-105519314D01*
X150113560Y-105550910D01*
X150075796Y-105606179D01*
X150026674Y-105655301D01*
X150002721Y-105713128D01*
X149968570Y-105763110D01*
X149955707Y-105826631D01*
X149930001Y-105888690D01*
X149930001Y-105953569D01*
X149917561Y-106015000D01*
X149046000Y-106015000D01*
X149046000Y-103834000D01*
X173280000Y-103834000D01*
X173280000Y-127306000D01*
M02*
